Coordinates
version=1
nRows=21
nColumns=27
inDegrees=yes

Units are S.I. units (second, meters, Newtons, ...)
If the header above contains a line with 'inDegrees', this indicates whether rotational values are in degrees (yes) or radians (no).

endheader
time	pelvis_rotation	pelvis_tilt	pelvis_list	pelvis_tx	pelvis_ty	pelvis_tz	hip_flexion_r	hip_adduction_r	hip_rotation_r	knee_angle_r	knee_rotation_r	knee_adduction_r	knee_angle_r_beta	ankle_angle_r	subtalar_angle_r	mtp_angle_r	hip_flexion_l	hip_adduction_l	hip_rotation_l	knee_angle_l	knee_rotation_l	knee_adduction_l	knee_angle_l_beta	ankle_angle_l	subtalar_angle_l	mtp_angle_l
      3.27500000	      7.39842518	    -41.88636686	      5.91844507	     -0.05090048	      0.52589913	     -1.17782634	    129.27403221	    -46.86443515	     14.94711603	     97.24607454	      0.00000000	      0.00000000	      1.69726419	     11.04435972	      0.00000000	      0.00000000	    122.66080818	    -35.33002184	      6.52677872	     91.43704831	      0.00000000	      0.00000000	      1.59587755	      1.91854268	      0.00000000	      0.00000000
      3.28000000	      7.36165687	    -41.81442363	      5.85640892	     -0.05065040	      0.52437083	     -1.17781904	    129.43638947	    -46.89136486	     15.10611420	     97.47647383	      0.00000000	      0.00000000	      1.70128541	     11.13124060	      0.00000000	      0.00000000	    122.86793998	    -35.35793990	      6.74580671	     91.68401980	      0.00000000	      0.00000000	      1.60018802	      2.00556771	      0.00000000	      0.00000000
      3.28500000	      7.32911726	    -41.76727528	      5.79064363	     -0.05047143	      0.52287543	     -1.17784399	    129.60286013	    -46.91412134	     15.24896233	     97.68586015	      0.00000000	      0.00000000	      1.70493989	     11.21159595	      0.00000000	      0.00000000	    123.09708629	    -35.35523890	      6.98282999	     91.92345788	      0.00000000	      0.00000000	      1.60436700	      2.11380976	      0.00000000	      0.00000000
      3.29000000	      7.22930947	    -41.68398800	      5.78068502	     -0.05020617	      0.52133035	     -1.17783265	    129.80740166	    -46.82691281	     15.48575034	     97.92599366	      0.00000000	      0.00000000	      1.70913101	     11.26989711	      0.00000000	      0.00000000	    123.24070546	    -35.48738234	      7.12638694	     92.17084046	      0.00000000	      0.00000000	      1.60868464	      2.19904813	      0.00000000	      0.00000000
      3.29500000	      6.74093893	    -41.43600363	      5.71099895	     -0.05013224	      0.51996052	     -1.17771585	    129.69751397	    -46.27370825	     15.65834655	     98.10329388	      0.00000000	      0.00000000	      1.71222549	     11.38733306	      0.00000000	      0.00000000	    123.12548897	    -35.99549469	      7.22053112	     92.37656937	      0.00000000	      0.00000000	      1.61227529	      2.30065584	      0.00000000	      0.00000000
      3.30000000	      7.13335164	    -41.52986688	      5.71249354	     -0.04970470	      0.51822690	     -1.17787467	    130.17639427	    -46.80610462	     15.88292386	     98.38307782	      0.00000000	      0.00000000	      1.71710864	     11.42410102	      0.00000000	      0.00000000	    123.59827348	    -35.56871668	      7.52207483	     92.66642516	      0.00000000	      0.00000000	      1.61733423	      2.39427656	      0.00000000	      0.00000000
      3.30500000	      7.08491860	    -41.44683451	      5.71313159	     -0.04945035	      0.51666341	     -1.17790163	    130.39527243	    -46.77087752	     16.13016142	     98.61733235	      0.00000000	      0.00000000	      1.72119715	     11.47839216	      0.00000000	      0.00000000	    123.74938140	    -35.62930510	      7.68139612	     92.91526734	      0.00000000	      0.00000000	      1.62167734	      2.48473270	      0.00000000	      0.00000000
      3.31000000	      7.02578806	    -41.35459584	      5.65477486	     -0.04917191	      0.51507686	     -1.17794445	    130.53970854	    -46.76584882	     16.30584531	     98.84468266	      0.00000000	      0.00000000	      1.72516516	     11.57728177	      0.00000000	      0.00000000	    123.92512357	    -35.65199000	      7.91544489	     93.16778920	      0.00000000	      0.00000000	      1.62608468	      2.59888111	      0.00000000	      0.00000000
      3.31500000	      6.97514870	    -41.25918441	      5.60569634	     -0.04889587	      0.51349212	     -1.17800068	    130.70596305	    -46.77055756	     16.49241861	     99.07337269	      0.00000000	      0.00000000	      1.72915655	     11.63852372	      0.00000000	      0.00000000	    124.10247551	    -35.67687711	      8.13427614	     93.42456887	      0.00000000	      0.00000000	      1.63056633	      2.69753886	      0.00000000	      0.00000000
      3.32000000	      6.90300054	    -41.16995083	      5.55290135	     -0.04864012	      0.51191243	     -1.17806366	    130.86239738	    -46.74406468	     16.67602763	     99.29745274	      0.00000000	      0.00000000	      1.73306749	     11.71831425	      0.00000000	      0.00000000	    124.27852836	    -35.71292518	      8.35969784	     93.67922078	      0.00000000	      0.00000000	      1.63501084	      2.81442867	      0.00000000	      0.00000000
      3.32500000	      6.86782698	    -41.10349079	      5.49481018	     -0.04836397	      0.51027831	     -1.17809873	    131.05111380	    -46.75893109	     16.86033908	     99.53612119	      0.00000000	      0.00000000	      1.73723304	     11.77880574	      0.00000000	      0.00000000	    124.50933800	    -35.70958931	      8.61156879	     93.94043053	      0.00000000	      0.00000000	      1.63956981	      2.88300579	      0.00000000	      0.00000000
      3.33000000	      6.78081171	    -40.99304064	      5.48828594	     -0.04805172	      0.50870867	     -1.17817333	    131.22967388	    -46.69591727	     17.09627644	     99.76098493	      0.00000000	      0.00000000	      1.74115765	     11.86325995	      0.00000000	      0.00000000	    124.62133126	    -35.80264523	      8.76929337	     94.18890172	      0.00000000	      0.00000000	      1.64390645	      2.99296677	      0.00000000	      0.00000000
      3.33500000	      6.72899001	    -40.90076035	      5.45078808	     -0.04772585	      0.50711311	     -1.17824502	    131.39972429	    -46.69189047	     17.29977813	     99.98866785	      0.00000000	      0.00000000	      1.74513147	     11.94121077	      0.00000000	      0.00000000	    124.78680832	    -35.83274876	      8.97648937	     94.44364899	      0.00000000	      0.00000000	      1.64835263	      3.10345439	      0.00000000	      0.00000000
      3.34000000	      6.67418911	    -40.81403295	      5.40231054	     -0.04743619	      0.50555698	     -1.17831732	    131.55442107	    -46.68478707	     17.48399685	    100.20325639	      0.00000000	      0.00000000	      1.74887675	     11.99528814	      0.00000000	      0.00000000	    124.96365960	    -35.85024182	      9.20006026	     94.69258103	      0.00000000	      0.00000000	      1.65269732	      3.17697477	      0.00000000	      0.00000000
      3.34500000	      6.60384836	    -40.72172042	      5.35810753	     -0.04707075	      0.50389391	     -1.17836568	    131.73563252	    -46.66447539	     17.68677577	    100.44687626	      0.00000000	      0.00000000	      1.75312871	     12.09368342	      0.00000000	      0.00000000	    125.14703542	    -35.91561853	      9.41363782	     94.95638545	      0.00000000	      0.00000000	      1.65730157	      3.32317649	      0.00000000	      0.00000000
      3.35000000	      6.55082708	    -40.63610002	      5.31171191	     -0.04677633	      0.50234889	     -1.17842229	    131.90169005	    -46.65920014	     17.87085497	    100.66246068	      0.00000000	      0.00000000	      1.75689137	     12.09682547	      0.00000000	      0.00000000	    125.32637246	    -35.94063674	      9.62918132	     95.19792220	      0.00000000	      0.00000000	      1.66151718	      3.38408806	      0.00000000	      0.00000000
      3.35500000	      6.40032210	    -40.52758077	      5.03967965	     -0.04637437	      0.50073122	     -1.17849624	    131.81143461	    -46.73043252	     17.77872557	    100.86994326	      0.00000000	      0.00000000	      1.76051263	     12.24064640	      0.00000000	      0.00000000	    125.64560520	    -35.94065053	     10.08483156	     95.48601363	      0.00000000	      0.00000000	      1.66654533	      3.50204391	      0.00000000	      0.00000000
      3.36000000	      6.37526453	    -40.42902170	      5.10127510	     -0.04601787	      0.49913434	     -1.17852438	    132.07305830	    -46.66941556	     18.10978817	    101.10898309	      0.00000000	      0.00000000	      1.76468466	     12.32738772	      0.00000000	      0.00000000	    125.73916348	    -36.02631052	     10.17976077	     95.72244548	      0.00000000	      0.00000000	      1.67067184	      3.60148048	      0.00000000	      0.00000000
      3.36500000	      6.36765604	    -40.35970408	      5.20838808	     -0.04567374	      0.49755655	     -1.17853941	    132.40450712	    -46.58525598	     18.49044677	    101.34936508	      0.00000000	      0.00000000	      1.76888012	     12.39362279	      0.00000000	      0.00000000	    125.82794713	    -36.12764033	     10.22095709	     95.94867725	      0.00000000	      0.00000000	      1.67462033	      3.69559332	      0.00000000	      0.00000000
      3.37000000	      6.33536853	    -40.28011546	      5.02338556	     -0.04525994	      0.49598805	     -1.17861014	    132.43803251	    -46.72871142	     18.50179916	    101.55446918	      0.00000000	      0.00000000	      1.77245986	     12.46798806	      0.00000000	      0.00000000	    126.13049770	    -36.05320879	     10.59878061	     96.21470577	      0.00000000	      0.00000000	      1.67926340	      3.76170990	      0.00000000	      0.00000000
      3.37500000	      6.24168796	    -40.17544034	      5.03443320	     -0.04490812	      0.49441390	     -1.17859764	    132.62159571	    -46.61090631	     18.76052504	    101.78840386	      0.00000000	      0.00000000	      1.77654279	     12.55933932	      0.00000000	      0.00000000	    126.24584414	    -36.19586640	     10.73394021	     96.44750921	      0.00000000	      0.00000000	      1.68332659	      3.85030123	      0.00000000	      0.00000000
